<svg xmlns="http://www.w3.org/2000/svg" viewBox="0 0 32 32" width="32" height="32">
  <!-- Background with rounded corners -->
  <rect x="0" y="0" width="32" height="32" rx="5" ry="5" fill="#323232"/>
  
  <!-- Veed V logo centered with 5px margins (22px width available for logo) -->
  <g transform="translate(5, 8.5) scale(0.35)">
    <path d="M62.532.722 45.662 42.1a6.294 6.294 0 0 1-5.828 3.917h-17.05a6.293 6.293 0 0 1-5.824-3.912L.039.722A.511.511 0 0 1 .512.017H17.59c.426 0 .807.264.957.662l12.79 34.109L44.022.683c.148-.4.531-.666.957-.666H62.06c.363 0 .61.368.474.703l-.002.002Z" fill="#b7ff60"/>
  </g>
</svg>
